<svg width="32" height="32" viewBox="0 0 32 32" fill="none" xmlns="http://www.w3.org/2000/svg">
<g clip-path="url(#clip0_113_452)">
<path d="M16 28.8C23.0693 28.8 28.8 23.0693 28.8 16C28.8 8.93077 23.0693 3.20001 16 3.20001C8.93077 3.20001 3.20001 8.93077 3.20001 16C3.20001 23.0693 8.93077 28.8 16 28.8Z" fill="white"/>
<path d="M16 0C7.1632 0 0 7.16373 0 16C0 24.8363 7.16373 32 16 32C24.8363 32 32 24.8363 32 16C32 7.16373 24.8363 0 16 0ZM12.28 25.6L12.2693 25.5893L12.2603 25.6L4.8 17.92L8.5488 14.0992L12.2699 17.9307L23.4699 6.40053L27.2 10.2395L12.28 25.6Z" fill="#43A047"/>
</g>
<defs>
<clipPath id="clip0_113_452">
<rect width="32" height="32" fill="white"/>
</clipPath>
</defs>
</svg>
