<svg width="24" height="24" viewBox="0 0 24 24" fill="none" xmlns="http://www.w3.org/2000/svg">
<g clip-path="url(#clip0_20_46)">
<path d="M12.5321 0.281031C11.8783 0.366609 10.8688 0.721424 10.2358 1.08673C9.05472 1.7651 7.80635 3.19097 7.31253 4.43382C6.9362 5.39047 6.79218 6.12226 6.78394 7.18C6.77297 9.57509 7.67029 11.7808 9.24228 13.206L9.72304 13.6404L9.43913 13.5853C9.11686 13.5223 8.73211 13.5873 8.79282 13.686C8.81558 13.724 8.9231 13.7324 9.03086 13.7106C9.24631 13.6745 9.72961 13.784 10.1815 13.9764L10.4803 14.0996L10.0254 14.285C9.49348 14.5 8.98361 14.8435 9.12926 14.89C9.18293 14.9055 9.28312 14.8685 9.35281 14.8011C9.53847 14.6439 10.3712 14.2877 10.4246 14.341C10.4475 14.3638 10.3077 14.5441 10.1065 14.7314C9.91283 14.9263 9.75005 15.1064 9.74975 15.1442C9.74952 15.1744 9.91787 15.2664 10.1171 15.3359L10.4926 15.4749L10.4893 15.898C10.4934 16.3665 10.5839 16.5863 11.0549 17.2851C11.5031 17.9459 11.6464 18.3021 11.6426 18.7932C11.6361 19.6168 11.1609 20.4442 10.365 21.0122C9.77759 21.4383 9.17591 21.7283 7.63415 22.3435C5.67607 23.1291 4.99655 23.5469 4.9932 23.9776C4.9912 24.2345 5.04517 24.2122 5.17815 23.911C5.34247 23.5345 5.90602 23.2065 7.42473 22.5912C9.06668 21.939 9.82263 21.5747 10.433 21.1563C11.252 20.5885 11.7113 19.8365 11.7796 18.9605C11.8229 18.3337 11.71 18.0231 11.1177 17.1118C10.5861 16.2992 10.439 15.4518 10.8532 15.5532C11.1983 15.639 11.8204 15.6968 11.9359 15.6599C12.0362 15.6153 12.0289 15.5624 11.8935 15.1911C11.8107 14.9638 11.7285 14.6685 11.714 14.5475C11.6851 14.3206 11.6928 14.3206 12.0462 14.3234C13.514 14.3273 15.5279 13.2776 16.7609 11.8591C18.3118 10.073 19.0489 8.1822 18.9333 6.23948C18.7721 3.26125 16.7855 0.797723 14.1687 0.316443C13.5241 0.198087 13.1861 0.187899 12.5321 0.281031Z" fill="white"/>
</g>
<defs>
<clipPath id="clip0_20_46">
<rect width="24" height="24" fill="white"/>
</clipPath>
</defs>
</svg>
