<svg width="64" height="64" viewBox="0 0 64 64" fill="none" xmlns="http://www.w3.org/2000/svg">
<path d="M50.5321 8.51154C49.5751 8.64669 48.1002 9.18731 47.177 9.7392C45.4545 10.7641 43.6418 12.9041 42.9326 14.7625C42.3921 16.1929 42.1895 17.2854 42.1895 18.8622C42.2007 22.4326 43.5405 25.7101 45.8598 27.8163L46.5691 28.4583L46.1525 28.3795C45.6797 28.2894 45.1167 28.3907 45.2068 28.5371C45.2406 28.5935 45.3982 28.6047 45.5558 28.5709C45.871 28.5146 46.5803 28.6723 47.2446 28.9539L47.6837 29.1341L47.0194 29.4157C46.2426 29.7423 45.4995 30.2604 45.7134 30.328C45.7922 30.3505 45.9386 30.2942 46.0399 30.1928C46.3101 29.9563 47.5261 29.4157 47.6049 29.4945C47.6386 29.5283 47.436 29.7986 47.1433 30.0802C46.8618 30.373 46.6254 30.6433 46.6254 30.6996C46.6254 30.7447 46.8731 30.8798 47.1658 30.9812L47.7175 31.1839V31.8147C47.7287 32.513 47.8638 32.8396 48.5619 33.8758C49.2261 34.8557 49.44 35.385 49.44 36.1171C49.44 37.3448 48.7532 38.5837 47.5936 39.4397C46.738 40.0817 45.8598 40.521 43.6081 41.4558C40.7484 42.6497 39.7576 43.2804 39.7576 43.9224C39.7576 44.3053 39.8364 44.2715 40.0278 43.821C40.2643 43.2579 41.0861 42.7623 43.3041 41.8275C45.7022 40.8363 46.8055 40.2844 47.6949 39.6537C48.8883 38.7977 49.5526 37.6714 49.6427 36.3649C49.699 35.4301 49.5301 34.9683 48.6519 33.6167C47.8638 32.4116 47.6386 31.1502 48.2466 31.2966C48.7532 31.4205 49.6652 31.4993 49.8341 31.443C49.9804 31.3754 49.9692 31.2966 49.7665 30.7447C49.6427 30.4068 49.5188 29.9675 49.4963 29.7873C49.4513 29.4494 49.4625 29.4494 49.9804 29.4494C52.1308 29.4382 55.0693 27.8501 56.8594 25.7214C59.1112 23.0408 60.1695 20.2138 59.9781 17.3192C59.7079 12.8816 56.7694 9.23236 52.9302 8.54532C51.9845 8.37638 51.4891 8.36512 50.5321 8.51154Z" fill="#01702D"/>
<path d="M13.3115 7.92973C12.4388 8.34499 11.1932 9.30208 10.4774 10.1049C9.14034 11.5982 8.05091 14.1824 7.93006 16.1679C7.84231 17.6945 7.97577 18.7976 8.44749 20.3022C9.52634 23.7057 11.7853 26.4323 14.6284 27.7482L15.4973 28.1486L15.0762 28.198C14.598 28.2534 14.0912 28.5186 14.221 28.6313C14.27 28.675 14.4238 28.6386 14.5641 28.5592C14.8481 28.4111 15.572 28.3494 16.2901 28.4194L16.763 28.46L16.2134 28.9274C15.5698 29.4714 15.0158 30.1881 15.2401 30.1886C15.3221 30.1865 15.4449 30.089 15.5112 29.9619C15.6983 29.6554 16.6968 28.7758 16.7956 28.8274C16.8379 28.8496 16.7254 29.1681 16.5304 29.5244C16.3494 29.888 16.2047 30.2167 16.2215 30.2704C16.235 30.3134 16.5118 30.3683 16.8214 30.3774L17.4085 30.4058L17.5971 31.0077C17.8168 31.6706 18.0434 31.9419 19.0195 32.7218C19.9464 33.4581 20.3089 33.8992 20.5279 34.5978C20.8952 35.7692 20.6105 37.1569 19.7601 38.3206C19.1357 39.1891 18.4291 39.871 16.5602 41.4366C14.1886 43.4313 13.4319 44.3296 13.624 44.9422C13.7385 45.3076 13.8036 45.2518 13.8515 44.7646C13.9086 44.1565 14.5446 43.4378 16.3813 41.8822C18.3731 40.2191 19.2608 39.3624 19.9208 38.4945C20.8035 37.3207 21.1004 36.0472 20.7954 34.7736C20.5695 33.8647 20.2702 33.4746 19.0279 32.4477C17.9154 31.5335 17.3231 30.3972 17.9471 30.355C18.4676 30.3217 19.3613 30.1241 19.5056 30.0198C19.6251 29.9116 19.5907 29.8397 19.2323 29.3737C19.013 29.0883 18.7634 28.7063 18.688 28.541C18.544 28.2321 18.5547 28.2287 19.0489 28.0738C21.0974 27.4197 23.4263 25.0253 24.4976 22.4586C25.8443 19.2271 26.0084 16.213 24.9598 13.5082C23.3744 9.35463 19.4788 6.75162 15.6099 7.24457C14.657 7.36628 14.1809 7.50373 13.3115 7.92973Z" fill="#D62618"/>
<path d="M33.629 6.81732C32.671 6.94501 31.192 7.47414 30.2645 8.01882C28.534 9.0303 26.7048 11.1561 25.981 13.0089C25.4295 14.4351 25.2183 15.526 25.206 17.1027C25.1895 20.6731 26.5037 23.9609 28.8065 26.0851L29.5108 26.7326L29.0948 26.6505C28.6227 26.5567 28.059 26.6537 28.1479 26.8008C28.1813 26.8574 28.3388 26.8699 28.4967 26.8373C28.8123 26.7835 29.5204 26.9467 30.1824 27.2334L30.6201 27.4171L29.9537 27.6934C29.1743 28.014 28.4272 28.5263 28.6406 28.5956C28.7192 28.6187 28.866 28.5635 28.9681 28.4629C29.2402 28.2285 30.4603 27.6974 30.5385 27.7768C30.572 27.8109 30.3672 28.0796 30.0723 28.3589C29.7886 28.6495 29.5501 28.918 29.5496 28.9743C29.5493 29.0194 29.7959 29.1565 30.0878 29.2601L30.6379 29.4671L30.633 30.0978C30.6388 30.7962 30.7714 31.1239 31.4613 32.1655C32.1179 33.1505 32.3277 33.6815 32.322 34.4136C32.3124 35.6412 31.616 36.8747 30.4498 37.7217C29.5891 38.357 28.7076 38.7894 26.4486 39.7067C23.5797 40.8782 22.5841 41.5012 22.5791 42.1432C22.5761 42.5261 22.6552 42.4929 22.8501 42.0439C23.0909 41.4826 23.9166 40.9935 26.1418 40.076C28.5475 39.1035 29.6551 38.5602 30.5494 37.9365C31.7495 37.0898 32.4225 35.9687 32.5227 34.6629C32.5863 33.7286 32.421 33.2655 31.5534 31.9071C30.7747 30.6959 30.5594 29.4327 31.1662 29.5839C31.6718 29.7117 32.5831 29.7976 32.7524 29.7426C32.8993 29.6762 32.8887 29.5973 32.6903 29.0438C32.5691 28.705 32.4487 28.2648 32.4276 28.0844C32.3852 27.7462 32.3964 27.7463 32.9143 27.7503C35.0647 27.7558 38.0155 26.1906 39.8221 24.0759C42.0947 21.4129 43.175 18.5943 43.0061 15.6983C42.7705 11.2587 39.8605 7.58669 36.0268 6.86978C35.0824 6.69347 34.5871 6.67835 33.629 6.81732Z" fill="#F9E421"/>
<path d="M39.339 19.8686C38.381 19.9963 36.9019 20.5255 35.9745 21.0701C34.244 22.0816 32.4147 24.2074 31.691 26.0602C31.1394 27.4864 30.9283 28.5773 30.916 30.1541C30.8995 33.7244 32.2137 37.0123 34.5165 39.1364L35.2207 39.7839L34.8048 39.7019C34.3327 39.6081 33.769 39.7051 33.8579 39.8522C33.8912 39.9088 34.0487 39.9212 34.2066 39.8887C34.5223 39.8348 35.2303 39.998 35.8924 40.2848L36.33 40.4684L35.6636 40.7448C34.8843 41.0653 34.1372 41.5776 34.3506 41.6469C34.4292 41.67 34.576 41.6148 34.6781 41.5143C34.9501 41.2799 36.1702 40.7487 36.2484 40.8282C36.2819 40.8622 36.0772 41.131 35.7823 41.4102C35.4985 41.7009 35.26 41.9693 35.2596 42.0256C35.2592 42.0707 35.5059 42.2078 35.7978 42.3114L36.3479 42.5184L36.3429 43.1492C36.3488 43.8475 36.4813 44.1752 37.1713 45.2168C37.8279 46.2018 38.0377 46.7328 38.032 47.4649C38.0224 48.6925 37.326 49.9261 36.1597 50.773C35.2991 51.4083 34.4175 51.8407 32.1586 52.758C29.2897 53.9296 28.2941 54.5526 28.2891 55.1945C28.2861 55.5775 28.3652 55.5443 28.5601 55.0953C28.8009 54.534 29.6266 54.0448 31.8517 53.1273C34.2575 52.1548 35.3651 51.6116 36.2594 50.9878C37.4594 50.1411 38.1324 49.02 38.2327 47.7143C38.2962 46.7799 38.131 46.3168 37.2633 44.9585C36.4847 43.7472 36.2693 42.484 36.8761 42.6352C37.3818 42.763 38.2931 42.849 38.4624 42.794C38.6093 42.7275 38.5986 42.6486 38.4003 42.0952C38.2791 41.7563 38.1586 41.3161 38.1375 41.1357C38.0951 40.7975 38.1064 40.7976 38.6243 40.8016C40.7747 40.8071 43.7255 39.242 45.5321 37.1273C47.8046 34.4643 48.8849 31.6456 48.7161 28.7496C48.4804 24.31 45.5704 20.638 41.7367 19.9211C40.7923 19.7448 40.2971 19.7297 39.339 19.8686Z" fill="#FFCB1B"/>
<path d="M24.6562 22.3158C23.6982 22.4435 22.2191 22.9726 21.2917 23.5173C19.5612 24.5288 17.7319 26.6546 17.0082 28.5074C16.4566 29.9335 16.2455 31.0244 16.2332 32.6012C16.2167 36.1716 17.5309 39.4594 19.8337 41.5836L20.5379 42.2311L20.122 42.149C19.6499 42.0552 19.0862 42.1522 19.1751 42.2993C19.2084 42.3559 19.3659 42.3684 19.5238 42.3358C19.8395 42.282 20.5475 42.4452 21.2096 42.7319L21.6472 42.9155L20.9808 43.1919C20.2015 43.5125 19.4544 44.0248 19.6678 44.094C19.7464 44.1172 19.8932 44.062 19.9953 43.9614C20.2673 43.727 21.4874 43.1959 21.5656 43.2753C21.5991 43.3094 21.3944 43.5781 21.0995 43.8574C20.8157 44.148 20.5772 44.4165 20.5768 44.4728C20.5764 44.5178 20.8231 44.6549 21.115 44.7586L21.6651 44.9656L21.6601 45.5963C21.666 46.2947 21.7985 46.6223 22.4885 47.6639C23.1451 48.649 23.3549 49.18 23.3492 49.912C23.3396 51.1397 22.6432 52.3732 21.4769 53.2202C20.6163 53.8555 19.7347 54.2879 17.4758 55.2051C14.6069 56.3767 13.6113 56.9997 13.6063 57.6417C13.6033 58.0246 13.6824 57.9914 13.8773 57.5424C14.1181 56.9811 14.9438 56.492 17.1689 55.5744C19.5747 54.602 20.6823 54.0587 21.5766 53.4349C22.7766 52.5883 23.4496 51.4672 23.5499 50.1614C23.6134 49.227 23.4482 48.764 22.5805 47.4056C21.8019 46.1944 21.5865 44.9312 22.1933 45.0823C22.699 45.2102 23.6103 45.2961 23.7796 45.2411C23.9265 45.1747 23.9158 45.0958 23.7175 44.5423C23.5963 44.2035 23.4758 43.7633 23.4547 43.5829C23.4123 43.2446 23.4236 43.2447 23.9415 43.2488C26.0919 43.2542 29.0427 41.6891 30.8493 39.5744C33.1218 36.9114 34.2021 34.0927 34.0333 31.1967C33.7976 26.7572 30.8876 23.0852 27.0539 22.3683C26.1095 22.1919 25.6143 22.1768 24.6562 22.3158Z" fill="#00427A"/>
</svg>
