<svg width="24" height="24" viewBox="0 0 24 24" fill="none" xmlns="http://www.w3.org/2000/svg">
<g clip-path="url(#clip0_20_40)">
<path d="M2.479 18C3.457 18 3.788 17.476 4.187 17.078C5 16.262 6 16.609 6 17.925V24H12.075C13.39 24 13.738 23 12.922 22.187C12.524 21.788 12 21.457 12 20.479C12 19.392 13.108 18 15 18C16.892 18 18 19.392 18 20.479C18 21.457 17.476 21.788 17.078 22.187C16.262 23 16.609 24 17.925 24H24V17.925C24 16.61 23 16.262 22.187 17.078C21.788 17.476 21.457 18 20.479 18C19.392 18 18 16.892 18 15C18 13.108 19.392 12 20.479 12C21.457 12 21.788 12.524 22.187 12.922C23 13.738 24 13.391 24 12.075V6H17.925C16.61 6 16.262 5 17.078 4.187C17.476 3.788 18 3.457 18 2.479C18 1.392 16.892 0 15 0C13.108 0 12 1.392 12 2.479C12 3.457 12.524 3.788 12.922 4.187C13.738 5 13.391 6 12.075 6H6V12.075C6 13.39 5 13.738 4.187 12.922C3.788 12.524 3.457 12 2.479 12C1.392 12 0 13.108 0 15C0 16.892 1.392 18 2.479 18Z" fill="white"/>
</g>
<defs>
<clipPath id="clip0_20_40">
<rect width="24" height="24" fill="white"/>
</clipPath>
</defs>
</svg>
