<svg width="24" height="24" viewBox="0 0 24 24" fill="none" xmlns="http://www.w3.org/2000/svg">
<path d="M3.67131 2.83228C3.67066 2.83228 3.66993 2.83228 3.66929 2.83228C3.4423 2.83228 3.2288 2.92076 3.06759 3.08157C2.9046 3.24416 2.81482 3.46064 2.81482 3.69111V16.5691C2.81482 17.0414 3.20052 17.4265 3.6747 17.4277C5.67374 17.4325 9.02292 17.8491 11.3334 20.267V6.78978C11.3334 6.6297 11.2925 6.47932 11.2153 6.35487C9.319 3.30096 5.67487 2.83696 3.67131 2.83228Z" fill="white"/>
<path d="M21.1852 16.5691V3.69101C21.1852 3.46055 21.0955 3.24406 20.9325 3.08148C20.7713 2.92067 20.5576 2.83218 20.3309 2.83218C20.3301 2.83218 20.3294 2.83218 20.3288 2.83218C18.3253 2.83695 14.6811 3.30095 12.7847 6.35486C12.7076 6.47931 12.6667 6.62969 12.6667 6.78977V20.2669C14.9772 17.849 18.3264 17.4324 20.3254 17.4276C20.7995 17.4264 21.1852 17.0413 21.1852 16.5691Z" fill="white"/>
<path d="M23.1413 5.80212H22.5186V16.5691C22.5186 17.7749 21.5362 18.758 20.3286 18.761C18.633 18.7651 15.8372 19.0966 13.8572 20.9707C17.2817 20.1322 20.8917 20.6772 22.9491 21.1461C23.206 21.2046 23.4714 21.1442 23.6773 20.9801C23.8823 20.8165 24 20.5719 24 20.3093V6.66079C24.0001 6.18734 23.6148 5.80212 23.1413 5.80212Z" fill="white"/>
<path d="M1.48138 16.5691V5.80212H0.85867C0.385294 5.80212 0 6.18734 0 6.66079V20.3091C0 20.5717 0.117657 20.8162 0.322749 20.9799C0.528406 21.1438 0.793619 21.2045 1.05091 21.1459C3.10829 20.6769 6.71841 20.132 10.1427 20.9704C8.16278 19.0965 5.36697 18.765 3.67137 18.761C2.46385 18.758 1.48138 17.7749 1.48138 16.5691Z" fill="white"/>
</svg>
