<svg width="32" height="32" viewBox="0 0 32 32" fill="none" xmlns="http://www.w3.org/2000/svg">
<g clip-path="url(#clip0_113_464)">
<path d="M16 32C24.8366 32 32 24.8366 32 16C32 7.16344 24.8366 0 16 0C7.16345 0 0 7.16344 0 16C0 24.8366 7.16345 32 16 32Z" fill="#DD3333"/>
<path d="M19.6 16.4033L23.5593 12.444C23.8106 12.196 23.9366 11.8873 23.9366 11.5287C23.9366 11.1687 23.8106 10.864 23.5593 10.6127L21.728 8.78133C21.4766 8.53333 21.1713 8.40533 20.8126 8.40533C20.4533 8.40533 20.148 8.52933 19.8966 8.78133L15.9373 12.7407L11.978 8.78133C11.7266 8.53333 11.4213 8.40533 11.062 8.40533C10.7026 8.40533 10.3973 8.52933 10.146 8.78133L8.31398 10.6127C8.06265 10.8647 7.93665 11.1693 7.93665 11.5287C7.93665 11.8887 8.06198 12.1933 8.31398 12.444L12.2733 16.4033L8.31398 20.3633C8.06265 20.6113 7.93665 20.92 7.93665 21.2787C7.93665 21.6387 8.06198 21.9433 8.31398 22.194L10.146 24.0253C10.3973 24.2773 10.7026 24.4013 11.062 24.4013C11.4213 24.4013 11.7266 24.2773 11.978 24.0253L15.9373 20.066L19.8973 24.0253C20.1486 24.2773 20.454 24.4013 20.8133 24.4013C21.1726 24.4013 21.478 24.2773 21.7286 24.0253L23.56 22.194C23.8113 21.946 23.9373 21.6373 23.9373 21.2787C23.9373 20.9187 23.812 20.614 23.56 20.3633L19.6006 16.4033" fill="white"/>
</g>
<defs>
<clipPath id="clip0_113_464">
<rect width="32" height="32" fill="white"/>
</clipPath>
</defs>
</svg>
